<?xml version="1.0" encoding="UTF-8" standalone="no"?>
<svg
   version="1.0"
   width="592.000000pt"
   height="301.000000pt"
   viewBox="0 0 592.000000 301.000000"
   preserveAspectRatio="xMidYMid meet"
   id="svg9"
   sodipodi:docname="playverse.svg"
   inkscape:version="1.4 (e7c3feb100, 2024-10-09)"
   xmlns:inkscape="http://www.inkscape.org/namespaces/inkscape"
   xmlns:sodipodi="http://sodipodi.sourceforge.net/DTD/sodipodi-0.dtd"
   xmlns="http://www.w3.org/2000/svg"
   xmlns:svg="http://www.w3.org/2000/svg">
  <defs
     id="defs9" />
  <sodipodi:namedview
     id="namedview9"
     pagecolor="#505050"
     bordercolor="#000000"
     borderopacity="1"
     inkscape:showpageshadow="0"
     inkscape:pageopacity="0"
     inkscape:pagecheckerboard="1"
     inkscape:deskcolor="#000000"
     inkscape:document-units="pt"
     inkscape:zoom="0.2150549"
     inkscape:cx="-637.04663"
     inkscape:cy="1699.566"
     inkscape:window-width="1920"
     inkscape:window-height="1080"
     inkscape:window-x="0"
     inkscape:window-y="0"
     inkscape:window-maximized="1"
     inkscape:current-layer="svg9" />
  <g
     transform="translate(0.000000,301.000000) scale(0.100000,-0.100000)"
     fill="#000000"
     stroke="none"
     id="g9"
     style="fill:#000000;fill-opacity:1">
    <path
       d="M1780 3002 c0 -6 -9 -136 -20 -289 -11 -153 -31 -446 -46 -651 l-26 -374 28 -29 c15 -16 37 -29 48 -29 12 0 232 25 489 57 l469 58 -7 70 c-4 38 -9 73 -12 78 -7 12 -44 9 -453 -43 -217 -27 -396 -47 -399 -44 -3 2 1 80 7 172 7 92 21 298 32 457 11 160 25 350 30 424 6 73 9 135 8 136 -2 2 -36 7 -75 10 -50 5 -73 4 -73 -3z"
       id="path1"
       style="fill:#000000;fill-opacity:1" />
    <path
       d="M955 2885 c-272 -85 -334 -108 -352 -130 -13 -14 -23 -35 -23 -45 0 -19 259 -1082 266 -1089 5 -5 134 20 138 28 2 3 -40 185 -93 404 -54 218 -96 397 -93 397 2 0 158 -79 347 -175 188 -96 346 -175 351 -175 5 0 26 15 47 33 l38 32 -96 390 c-105 420 -111 436 -173 434 -15 0 -175 -47 -357 -104z m370 -305 c32 -127 55 -233 52 -236 -2 -3 -69 27 -148 67 -225 112 -470 241 -467 245 5 5 481 153 494 153 6 1 37 -102 69 -229z"
       id="path2"
       style="fill:#000000;fill-opacity:1" />
    <path
       d="M4781 2646 l-300 -299 -140 281 c-77 154 -144 283 -148 285 -9 6 -109 -34 -122 -49 -8 -8 524 -1224 545 -1243 9 -9 134 37 134 49 0 4 -49 119 -110 256 l-110 249 331 329 330 329 -55 56 -55 55 -300 -298z"
       id="path3"
       style="fill:#000000;fill-opacity:1" />
    <path
       d="M3260 2871 c-23 -6 -30 -24 -83 -211 -96 -345 -84 -312 -115 -306 -15 3 -102 8 -194 12 l-168 6 0 -81 c0 -70 2 -81 18 -81 70 -1 315 -20 320 -24 3 -3 -27 -124 -67 -267 -52 -188 -69 -264 -61 -269 20 -12 121 -32 128 -25 4 4 41 129 82 278 l76 272 124 -2 c69 0 166 -4 217 -8 l92 -7 181 -274 181 -275 37 22 c72 44 82 51 82 62 0 6 -59 101 -131 211 -73 111 -139 212 -148 225 l-15 24 147 -7 147 -7 0 80 0 79 -62 6 c-35 3 -126 8 -203 12 -89 4 -143 10 -147 17 -4 7 -86 131 -181 277 -158 240 -177 265 -203 267 -16 1 -40 -2 -54 -6z m164 -400 c48 -73 86 -134 84 -136 -2 -1 -60 0 -130 3 -104 4 -128 8 -128 19 0 12 24 103 67 247 7 23 6 24 107 -133z"
       id="path4"
       style="fill:#000000;fill-opacity:1" />
    <path
       d="M2790 1354 c-129 -41 -279 -88 -332 -104 -84 -26 -99 -35 -117 -63 l-20 -34 130 -529 c71 -291 132 -537 135 -548 5 -16 13 -17 55 -12 28 4 60 11 73 16 l24 9 -44 173 c-24 95 -44 178 -44 184 0 8 25 7 85 -2 76 -11 101 -21 215 -83 288 -158 433 -232 445 -227 17 6 78 114 71 125 -7 11 -572 317 -612 331 -17 6 -80 16 -140 23 l-109 12 -33 129 c-18 70 -31 130 -29 133 3 2 160 -75 350 -172 l346 -176 37 19 38 19 47 224 c26 123 45 236 42 251 -5 25 -221 292 -284 351 -20 18 -40 27 -62 26 -17 0 -138 -34 -267 -75z m336 -196 c48 -57 96 -113 107 -125 20 -22 20 -25 4 -100 -9 -43 -22 -102 -28 -130 -7 -34 -16 -53 -25 -53 -21 0 -689 343 -676 348 44 14 518 161 524 161 4 1 46 -45 94 -101z"
       id="path5"
       style="fill:#000000;fill-opacity:1" />
    <path
       d="M909 1298 c0 -2 -87 -257 -192 -568 l-192 -565 -72 -3 c-62 -2 -72 0 -77 15 -2 10 -55 254 -116 543 -62 289 -115 528 -119 532 -6 6 -128 -16 -137 -24 -2 -3 53 -270 122 -594 113 -530 128 -591 150 -611 24 -22 33 -23 172 -23 124 0 150 3 169 18 17 13 72 164 228 626 113 335 205 611 205 612 0 3 -128 44 -136 44 -2 0 -4 -1 -5 -2z"
       id="path6"
       style="fill:#000000;fill-opacity:1" />
    <path
       d="M1760 1269 c-278 -46 -419 -71 -441 -80 -14 -5 -32 -22 -41 -37 -35 -59 -118 -272 -118 -301 0 -17 43 -205 96 -416 92 -368 98 -386 126 -407 l30 -21 161 42 c303 78 261 52 454 282 92 109 169 203 171 208 4 12 -98 92 -112 88 -6 -2 -76 -80 -156 -174 -80 -95 -148 -174 -151 -177 -6 -6 -301 -87 -305 -83 -8 9 -64 244 -62 260 2 15 85 56 393 193 l390 173 12 46 c6 26 9 52 6 58 -10 23 -354 332 -381 343 -16 6 -45 8 -72 3z m131 -255 c57 -53 105 -99 107 -103 1 -3 -140 -69 -314 -145 -221 -97 -318 -136 -323 -127 -4 6 -18 56 -31 111 l-23 99 38 88 c21 48 42 92 46 96 5 6 236 51 390 76 3 1 52 -42 110 -95z"
       id="path7"
       style="fill:#000000;fill-opacity:1" />
    <path
       d="M3930 1270 c-9 -5 -58 -98 -109 -208 l-92 -200 18 -38 18 -39 387 -145 c213 -80 389 -148 392 -151 10 -9 59 -289 52 -296 -3 -3 -106 2 -228 12 -123 10 -290 23 -373 29 l-150 11 -42 80 c-47 88 -51 114 -27 171 9 22 27 67 40 101 l23 62 -69 22 c-38 13 -71 21 -73 18 -13 -17 -97 -253 -97 -274 0 -38 135 -301 165 -321 19 -12 116 -23 442 -50 523 -42 502 -42 538 -4 l28 29 -43 243 c-23 134 -48 255 -56 269 -16 32 -22 34 -428 185 -175 65 -320 124 -323 130 -7 18 83 204 98 204 21 0 334 -62 346 -69 6 -3 57 -75 113 -159 l100 -153 53 30 c28 16 56 37 62 45 7 11 -20 58 -108 190 -64 96 -127 182 -139 190 -26 16 -415 96 -468 96 -19 0 -42 -5 -50 -10z"
       id="path8"
       style="fill:#000000;fill-opacity:1" />
    <path
       d="M5262 1235 c-165 -29 -249 -48 -262 -60 -18 -17 -115 -230 -132 -294 -8 -29 6 -95 88 -425 53 -215 104 -399 113 -409 34 -40 45 -40 224 7 277 72 247 53 434 271 90 105 167 197 172 206 8 12 -2 24 -44 57 -29 23 -58 42 -63 42 -5 0 -76 -80 -159 -179 l-151 -178 -148 -41 c-81 -23 -150 -39 -154 -37 -13 8 -73 266 -64 274 5 4 180 83 389 175 209 92 385 173 391 179 7 7 15 32 18 57 l7 46 -173 158 c-154 142 -223 198 -238 195 -3 0 -114 -20 -248 -44z m333 -221 c58 -54 105 -100 105 -104 0 -6 -586 -268 -620 -277 -12 -3 -21 20 -42 104 l-27 108 41 97 c39 94 42 98 77 104 20 4 106 19 191 34 85 15 158 28 162 29 4 0 55 -42 113 -95z"
       id="path9"
       style="fill:#000000;fill-opacity:1" />
  </g>
</svg>
