<?xml version="1.0" encoding="UTF-8" standalone="no"?>
<svg
   version="1.0"
   width="544.000000pt"
   height="459.000000pt"
   viewBox="0 0 544.000000 459.000000"
   preserveAspectRatio="xMidYMid meet"
   id="svg1"
   sodipodi:docname="x.svg"
   inkscape:version="1.4 (e7c3feb100, 2024-10-09)"
   xmlns:inkscape="http://www.inkscape.org/namespaces/inkscape"
   xmlns:sodipodi="http://sodipodi.sourceforge.net/DTD/sodipodi-0.dtd"
   xmlns="http://www.w3.org/2000/svg"
   xmlns:svg="http://www.w3.org/2000/svg">
  <defs
     id="defs1" />
  <sodipodi:namedview
     id="namedview1"
     pagecolor="#505050"
     bordercolor="#ffffff"
     borderopacity="1"
     inkscape:showpageshadow="0"
     inkscape:pageopacity="0"
     inkscape:pagecheckerboard="1"
     inkscape:deskcolor="#505050"
     inkscape:document-units="pt"
     inkscape:zoom="0.70710678"
     inkscape:cx="634.98189"
     inkscape:cy="81.317279"
     inkscape:window-width="1920"
     inkscape:window-height="1040"
     inkscape:window-x="0"
     inkscape:window-y="0"
     inkscape:window-maximized="1"
     inkscape:current-layer="svg1" />
  <g
     transform="translate(0.000000,459.000000) scale(0.100000,-0.100000)"
     fill="#000000"
     stroke="none"
     id="g1"
     style="fill:#000000;fill-opacity:1">
    <path
       d="M803 4205 c-62 -63 -113 -117 -113 -120 0 -4 400 -407 890 -895 490 -489 890 -893 890 -897 0 -4 -400 -407 -890 -896 -490 -489 -890 -891 -890 -894 0 -8 224 -233 233 -233 9 0 243 231 1223 1208 310 309 569 562 575 562 6 0 249 -237 539 -528 806 -805 1249 -1242 1257 -1242 10 0 233 223 233 232 0 4 -400 407 -890 895 -489 488 -890 892 -890 896 0 5 400 408 890 897 490 489 890 892 890 895 0 10 -228 235 -237 235 -5 0 -146 -139 -315 -308 -1060 -1059 -1468 -1462 -1480 -1462 -7 0 -79 67 -160 148 -998 999 -1626 1622 -1633 1621 -6 0 -61 -52 -122 -114z"
       id="path1"
       style="fill:#000000;fill-opacity:1" />
  </g>
</svg>
